<?xml version="1.0" standalone="no"?>
<!DOCTYPE svg PUBLIC "-//W3C//DTD SVG 20010904//EN"
 "http://www.w3.org/TR/2001/REC-SVG-20010904/DTD/svg10.dtd">
<svg version="1.0" xmlns="http://www.w3.org/2000/svg" width="700.000000pt" height="700.000000pt" viewBox="0 0 700.000000 700.000000" preserveAspectRatio="xMidYMid meet">
<metadata>
Created by potrace 1.11, written by Peter Selinger 2001-2013
</metadata>
<g transform="translate(0.000000,700.000000) scale(0.100000,-0.100000)" fill="#000000" stroke="none">
<path d="M280 6990 c-116 -25 -210 -102 -252 -209 -19 -48 -22 -74 -21 -186 0
-144 18 -231 87 -420 20 -55 325 -679 679 -1387 l642 -1288 -642 -1287 c-353
-709 -653 -1317 -667 -1353 -77 -206 -101 -314 -100 -465 0 -151 21 -213 98
-291 80 -79 139 -98 301 -97 145 0 230 18 425 89 60 22 654 313 1383 676 703
351 1282 638 1287 638 6 0 571 -280 1257 -623 687 -343 1286 -639 1333 -659
214 -90 353 -123 515 -122 152 1 214 22 291 98 79 80 98 139 97 301 0 145 -21
244 -88 425 -20 52 -325 674 -678 1383 l-642 1287 642 1288 c353 708 658 1330
678 1382 67 181 88 280 88 425 1 162 -18 221 -97 301 -77 76 -139 97 -291 98
-150 1 -258 -22 -465 -100 -36 -14 -644 -314 -1353 -667 l-1287 -642 -1288
642 c-708 354 -1332 659 -1387 679 -213 78 -422 110 -545 84z m3237 -2982 c7
-35 31 -101 54 -148 81 -165 266 -310 437 -343 34 -6 62 -14 62 -17 0 -3 -28
-11 -62 -17 -225 -43 -448 -266 -491 -491 -6 -34 -14 -62 -17 -62 -3 0 -11 28
-17 62 -43 225 -266 448 -491 491 -34 6 -62 14 -62 17 0 3 27 11 60 17 172 33
357 177 439 343 23 47 47 113 54 148 6 34 14 62 17 62 3 0 11 -28 17 -62z"></path>
</g>
</svg>
