<svg version="1.0" xmlns="http://www.w3.org/2000/svg" width="933.333" height="933.333" viewBox="0 0 700 700"><path d="M28 1C16.4 3.5 7 11.2 2.8 21.9.9 26.7.6 29.3.7 40.5c0 14.4 1.8 23.1 8.7 42 2 5.5 32.5 67.9 67.9 138.7L141.5 350 77.3 478.7C42 549.6 12 610.4 10.6 614 2.9 634.6.5 645.4.6 660.5c0 15.1 2.1 21.3 9.8 29.1 8 7.9 13.9 9.8 30.1 9.7 14.5 0 23-1.8 42.5-8.9 6-2.2 65.4-31.3 138.3-67.6C291.6 587.7 349.5 559 350 559c.6 0 57.1 28 125.7 62.3 68.7 34.3 128.6 63.9 133.3 65.9 21.4 9 35.3 12.3 51.5 12.2 15.2-.1 21.4-2.2 29.1-9.8 7.9-8 9.8-13.9 9.7-30.1 0-14.5-2.1-24.4-8.8-42.5-2-5.2-32.5-67.4-67.8-138.3L558.5 350l64.2-128.8c35.3-70.8 65.8-133 67.8-138.2 6.7-18.1 8.8-28 8.8-42.5.1-16.2-1.8-22.1-9.7-30.1-7.7-7.6-13.9-9.7-29.1-9.8-15-.1-25.8 2.2-46.5 10-3.6 1.4-64.4 31.4-135.3 66.7L350 141.5 221.2 77.3C150.4 41.9 88 11.4 82.5 9.4 61.2 1.6 40.3-1.6 28 1zm323.7 298.2c.7 3.5 3.1 10.1 5.4 14.8 8.1 16.5 26.6 31 43.7 34.3 3.4.6 6.2 1.4 6.2 1.7 0 .3-2.8 1.1-6.2 1.7-22.5 4.3-44.8 26.6-49.1 49.1-.6 3.4-1.4 6.2-1.7 6.2-.3 0-1.1-2.8-1.7-6.2-4.3-22.5-26.6-44.8-49.1-49.1-3.4-.6-6.2-1.4-6.2-1.7 0-.3 2.7-1.1 6-1.7 17.2-3.3 35.7-17.7 43.9-34.3 2.3-4.7 4.7-11.3 5.4-14.8.6-3.4 1.4-6.2 1.7-6.2.3 0 1.1 2.8 1.7 6.2z"/></svg>