<?xml version="1.0" standalone="no"?>
<!DOCTYPE svg PUBLIC "-//W3C//DTD SVG 20010904//EN"
 "http://www.w3.org/TR/2001/REC-SVG-20010904/DTD/svg10.dtd">
<svg version="1.0" xmlns="http://www.w3.org/2000/svg"
 width="700.000000pt" height="700.000000pt" viewBox="0 0 700.000000 700.000000"
 preserveAspectRatio="xMidYMid meet">
<metadata>
Created by potrace 1.11, written by Peter Selinger 2001-2013
</metadata>
<g transform="translate(0.000000,700.000000) scale(0.100000,-0.100000)"
fill="#000000" stroke="none">
<path d="M280 6990 c-71 -15 -146 -58 -189 -107 -114 -128 -119 -342 -16 -653
38 -115 142 -330 692 -1432 l648 -1298 -648 -1297 c-555 -1114 -654 -1317
-692 -1433 -107 -326 -98 -538 29 -666 80 -79 139 -98 301 -97 145 0 236 19
427 89 57 21 678 325 1381 676 703 351 1282 638 1287 638 5 0 584 -287 1287
-638 703 -351 1324 -655 1381 -676 191 -70 282 -89 427 -89 162 -1 221 18 301
97 79 80 98 139 97 301 0 144 -18 231 -87 420 -20 55 -325 679 -679 1388
l-642 1287 642 1288 c354 708 659 1332 679 1387 69 189 87 276 87 420 1 162
-18 221 -97 301 -80 79 -139 98 -301 97 -141 0 -231 -18 -413 -83 -48 -17
-671 -322 -1384 -678 l-1298 -647 -1298 647 c-713 356 -1336 661 -1384 678
-207 73 -419 105 -538 80z m3237 -2982 c33 -174 178 -356 347 -438 47 -23 113
-47 146 -53 33 -6 60 -14 60 -17 0 -3 -28 -11 -62 -17 -225 -43 -448 -266
-491 -491 -6 -34 -14 -62 -17 -62 -3 0 -11 28 -17 62 -33 171 -178 356 -343
437 -47 23 -113 47 -148 54 -34 6 -62 14 -62 17 0 3 27 11 60 17 33 6 99 30
147 53 168 82 313 265 346 438 6 34 14 62 17 62 3 0 11 -28 17 -62z"/>
</g>
</svg>
